@startuml
!theme plain
title TroppyCup Class Diagram

' Settings
skinparam classAttributeIconSize 0
hide empty members

' --- SFML Library ---
package SFML <<library>> {
}

' --- Application Classes ---
enum GlobalEventType
abstract class GraphicBase <<abstract>>

class TroppyCup {
    .. private attributes ..
    - isActive: bool
    - m_ScaleSpeed: sf::Vector2f
    - m_Sprite: sf::Sprite
    - m_TimeCounter: int
    .. public methods ..
    + TroppyCup()
    + ~TroppyCup()
    + SetScale(const sf::Vector2f& scale): void
    + SetPosition(const sf::Vector2f& position): void
    + Active(): void
    + draw(sf::RenderTarget& target, sf::RenderStates states) const: void
    + GetCollisionEventType() const: GlobalEventType
    + Update(const sf::Time&): bool
    + HandleInput(const sf::Event&): bool
}

' --- RELATIONSHIPS ---

' ==> Inheritance
GraphicBase <|-- TroppyCup

' ==> Composition
TroppyCup *-l- "1" SFML.Sprite : contains >

' ==> Dependency
TroppyCup ..> GlobalEventType : returns >
TroppyCup -- ResourceManager : load textures >
TroppyCup -- Environment : uses for defaults >
@enduml